<mxfile host="app.diagrams.net" agent="Mozilla/5.0 (Windows NT 10.0; Win64; x64) AppleWebKit/537.36 (KHTML, like Gecko) Chrome/128.0.0.0 Safari/537.36" version="24.7.15">
  <diagram name="Seite-1" id="YIUjtH-aMleW6nxys5UD">
    <mxGraphModel dx="1434" dy="746" grid="1" gridSize="10" guides="1" tooltips="1" connect="1" arrows="1" fold="1" page="1" pageScale="1" pageWidth="827" pageHeight="1169" math="0" shadow="0">
      <root>
        <mxCell id="0" />
        <mxCell id="1" parent="0" />
        <mxCell id="hDKMXDvTqqZTj5qX6rIO-1" style="edgeStyle=orthogonalEdgeStyle;rounded=0;orthogonalLoop=1;jettySize=auto;html=1;entryX=0.5;entryY=0;entryDx=0;entryDy=0;endArrow=none;endFill=0;curved=1;exitX=0.352;exitY=0.997;exitDx=0;exitDy=0;exitPerimeter=0;" edge="1" parent="1" source="hDKMXDvTqqZTj5qX6rIO-3" target="hDKMXDvTqqZTj5qX6rIO-8">
          <mxGeometry relative="1" as="geometry" />
        </mxCell>
        <mxCell id="hDKMXDvTqqZTj5qX6rIO-2" style="rounded=0;orthogonalLoop=1;jettySize=auto;html=1;entryX=0.5;entryY=0;entryDx=0;entryDy=0;edgeStyle=orthogonalEdgeStyle;curved=1;exitX=0.639;exitY=0.985;exitDx=0;exitDy=0;exitPerimeter=0;endArrow=none;endFill=0;" edge="1" parent="1" source="hDKMXDvTqqZTj5qX6rIO-3" target="hDKMXDvTqqZTj5qX6rIO-9">
          <mxGeometry relative="1" as="geometry" />
        </mxCell>
        <mxCell id="hDKMXDvTqqZTj5qX6rIO-3" value="Gerät A" style="rounded=1;whiteSpace=wrap;html=1;labelPosition=center;verticalLabelPosition=middle;align=center;verticalAlign=middle;" vertex="1" parent="1">
          <mxGeometry x="180" y="160" width="90" height="130" as="geometry" />
        </mxCell>
        <mxCell id="hDKMXDvTqqZTj5qX6rIO-4" value="" style="points=[[0.005,0.09,0],[0.08,0,0],[0.76,0.25,0],[1,0.92,0],[0.91,0.995,0],[0.57,0.995,0],[0.045,0.955,0],[0.005,0.43,0]];verticalLabelPosition=bottom;sketch=0;html=1;verticalAlign=top;aspect=fixed;align=center;pointerEvents=1;shape=mxgraph.cisco19.3g_4g_indicator;fillColor=#005073;strokeColor=none;rotation=45;" vertex="1" parent="1">
          <mxGeometry x="290" y="200" width="50" height="50" as="geometry" />
        </mxCell>
        <mxCell id="hDKMXDvTqqZTj5qX6rIO-5" value="" style="points=[[0.005,0.09,0],[0.08,0,0],[0.76,0.25,0],[1,0.92,0],[0.91,0.995,0],[0.57,0.995,0],[0.045,0.955,0],[0.005,0.43,0]];verticalLabelPosition=bottom;sketch=0;html=1;verticalAlign=top;aspect=fixed;align=center;pointerEvents=1;shape=mxgraph.cisco19.3g_4g_indicator;fillColor=#005073;strokeColor=none;rotation=-135;" vertex="1" parent="1">
          <mxGeometry x="472" y="200" width="50" height="50" as="geometry" />
        </mxCell>
        <mxCell id="hDKMXDvTqqZTj5qX6rIO-6" style="edgeStyle=orthogonalEdgeStyle;rounded=0;orthogonalLoop=1;jettySize=auto;html=1;entryX=0.5;entryY=0;entryDx=0;entryDy=0;endArrow=none;endFill=0;" edge="1" parent="1" source="hDKMXDvTqqZTj5qX6rIO-7" target="hDKMXDvTqqZTj5qX6rIO-11">
          <mxGeometry relative="1" as="geometry" />
        </mxCell>
        <mxCell id="hDKMXDvTqqZTj5qX6rIO-7" value="Gerät B" style="rounded=1;whiteSpace=wrap;html=1;labelPosition=center;verticalLabelPosition=middle;align=center;verticalAlign=middle;" vertex="1" parent="1">
          <mxGeometry x="550" y="160" width="90" height="130" as="geometry" />
        </mxCell>
        <mxCell id="hDKMXDvTqqZTj5qX6rIO-8" value="" style="shape=image;verticalLabelPosition=bottom;labelBackgroundColor=default;verticalAlign=top;aspect=fixed;imageAspect=0;image=data:image/png,iVBORw0KGgoAAAANSUhEUgAAALYAAAEUCAMAAACxjTxnAAAAkFBMVEX///8VFxYAAAABAQEWFhYPERAyMjL5+fmKioo6OzsSFBOwsLAUFxWgoKDZ2dnv7+/t7e3Nzs0GCgiVlZXj4+P19fV2dnaDg4PCwsKnp6fm5uZnZ2e1tbUABABGRkbc3NxTU1MoKChKSkqampocHBx4eHhqampfX18jIyPGxsbR0dEsLCw+Pj5JSUmGhoZQUlFEJt8DAAAgAElEQVR4nO096bqqPK9aGRQcQUBFESdwWnr/d3fapC1FAcHtGr7zvPmxn6VbIKSZmqmt1ifBG5+XA/eQfhnHfZvCfmNE6cEdLIcL76MP+hh4p0GyPRIGK1232hws3VnBl8evZH76W7hP7cOeoeZIbJ/Bctgv9gd78dvYIsyCHsVHIKxRsHTdodDpsH91nX4jkdfpT3vB7JdRHi1DiocuCGrpBBmiF8VpGoZpGlMux+8o3/Qz1MPl6NeQnoUa6eR44HoYLM+LkWdmPzK9EZXTnd9TuUjrEC05/QbOU9cSWGgU5X3qzqYvrph1071AXbNWpO3+NJ9PUsHObMnjwdB8fQ0Dczi4S7ayKLOcvxfPHCwjsrL4gzfBrCbKAsxZcOQvTUkeLb8HxydY9ojDeUM/TEpw9saL6XQxLlHU5sTX8SZth1x/AvFZD5eYEjpdPuI8Gs52QbLdEAU22yTYzYaPmsNcCj5zSO+7NeLwjkhTWt3yEmie50lPezSSmZnUesn8nH/NabASd4uH34j0+IArq5PNQF1+8+zGFLOObmWGJQ9aG3V6vMvJoDc4AuKU3w7fpsjnhCDSF1vFeZYc83Zd+iHsVZwc6amqPCY5GZ5vkFVIx3583kdg/QX3t8h+rnw78xlX5GwO2Udpcghut1sQHPw0Ancley+9Q4ivMvN8z2+8faH434EdcRgHEMfNaDXtUpS4x8F44LgN7NPiUU5Nc3GyA/AO+ftRcd53M1NjuoT0QTZ3H0Z6sWUU0XSSjOV3J2lyqPqlDtJyXanAzfWSOV0dXbxlmln3cQJvZJH7R+3mEkWRGJlALQ2ykqRL6npGIzvZi5elii/T2OcLyE2HfFCJH+BBDnHlN7bBtTfl5sOkkffvnag4OIwp6OL1pBxSTnFgFYIPIb24MkL0SbQW38wumcl5y1JIU6MTQ95geGVysifRuOrSujDRKBX6FrnJ20uTQ9y3ZX/aJc+mJiCdMLCI/gH/yoa7r6wJ/zySJsewG/pQeTDnfM065CC47ETCm/W1/XcGd+liahrZioVbtoXJ+YDs2Ggj22QvbrboHkLXPVz+cQthB3e9rUkxGcVcUW0+ZNIo4igkqVBFcz9J3Wu3+y93DaMkcXQicFxqRINVdf+JPVSgCqTDtAppC9G0ezc3cnvv08WMyeEQSgkxD9zkhB/1ekYhX8ED/2LhdyM36t7eJc2WXLpJqHNtsejBehLn487xDFw067jj5Fi4V0rvL7f6qhIwt0TT01iQFg0lpcnH+EN5FFtH69INuGUwU4r23R+886iY8THpcd20A/NAVt+0D2EE1+N0yznaDDbJNY3T5jcK2cKRLf+UIIPE3xbE8+6k7TgO8fGjGRGd+izz6oue4QBYR7hMVDaBQd7jtprQxfVM+SOpR6Fv/YZ474BDrvhhBMKok0cG8abD02yyfsPXNBf0ytM675rPmEbRyBVX1Ox1NH1FBk1uOyMs4HXBG4wN5qGu9uvcT05dHhYmq95hUnSTUlgmBt+yXeKdsvdd6x1GLAOVwGjDdMATrSpgzdZL36NBXxzh8i+VrYeBss1im1uj/t0HDu7i+izWyfaWWUhtFLFl7WzwwWNLZ5y5Lr3TA3gX+D3SYXwBrGPl/0936nbm9+g6SetJ67BH8kHwPn3pRKAGQqR1OL3PQD2jrhq4gziiNzMyAOtEefCWx5NEWBipTrQ6ZJnhtXyv3NE17rb7guIhE6oVV7szkLC4HtYuYI2yYMKyKVib3G+1WHz9MJjbc/eOnrPeee18z/g2yUp39MpdciGcBIQInQGqlnypqNTaGJ/gp1x/puoHCpMjDw6QZCY9Ew/8OM05vvJVhqjjvjJBWNh8n2ORr0WGt0ZS9UONbYO3p6RzLvgBtXco/3OHMSSi7fIY0jVgy/nCqnkbvYB4iwCjRivh7KRwL+4rbygf6cfXVp69n0VwvQckL40hbirJ7vk23RrLiUv3rHPGB+4D8stRtpBrQKkpy10CS7gEXQNgl9VV4Oht0VamhVtUH5azKgI5J+ydC+0e6heNo2f2HPZholz1Qr96TC1wrhij9hbs4BloK8v8955Dl9Mov/W0km7ctKPsj/t0S6U7+GS2RrperQUZi+hH/M3WybQ3xRosPNmUqgtE69YyRxPb9eOrQeEa+649yW6nX0qfDKZdUAxkdxXD3yMmbNVsclI09g3+lhtd1IT3ire2UVdeUJnrAKifL8lgPSAqEYpeuw8W4qDcq8tfiF1Z5T9cdE0w2AQulCEiVKfVqgJEztGfY9zMLjG/ptqFBN9H479BHXaWz65ivwGwEbCUd2R6MBL/s6uBNQoD91MspLalWnKnV309OE8WF78r8BSogzEIXKkvOALuRJHzYWWEyZ3k9gylYBNhQPWNcY2iq7EBQot83qtMx3ijy6cuABlkmTnp06/LjBlbGOfK8dToegmlYQLpL699Gqa5rOPgtBYpMm+8Pu38De6NXgclQUt37vC3rbAJva9WdjlqdvidabCgjrSOB8UEVcJZeZQKzBjpWo0d7UyxNKD5DLiIUbEMAcb5XHG6gKdYlTNY21r7I79QepA5a0XfguzJjGc1bjnDTpkSXMOLcr7KTCWFL2pIFMekCjxYscc3ZC/jxLVu0DIyLW2D4R0LjPqF5A5Xkn8Y3Z27+I9TdvVrGCj2SgASpOYuZaIwJNALX+GQsUIOmGGyEDnkUPlqTBXV34oCtfL6OXakTqgBwKuI6xq4E/TPAjjmmdzwOkjsbe4x7CX0fe0AEdo0ldxIv9opAkQQ5UrhLopfgTIZgazCvU953wXevsG+H2ir3j9yXtnHPAAB8fdjlotFZwPl7VF3u9nSxLnHmPA+DaJR5wfiMipYToMbMHYV2sjNyA3ke3DowaCg1MBjiPyfJUW7WfYKZDtj5avebLU4k6JFNTNbMmRMsMn/cpbpjrtDVU32GL8jPfaagIpDkJvdWW83ip3OMy6h5NbaDvpCX87T3iiWX7GXsvbZml70Wns5FXyicDdwdrNQ3khR855mCTYA0ua8uTH1VThyikAwmD799jWwDYPVQXJPQI83DFRTvpJs2pU0MNvWg1DuJK4jsC0ZsdljGxKLSs+K8hn6+HFzYnPSce9zlCnU7qNOu0qBnGcapSU/N43FA6MRs8WNmN40K8BMLRE5vkQSDoQyyn6mfAYjp/jFoBhrRw8FpMzRHIhnNg6LMy6WnheYO9xg9PQcMkxci18IdpT1LZyAE/c5R80MpACGaebJXSUlB3nVDW8BNw8eWRnQbp7QgzvOcK1qeyMlaAOfgqQwS6lfxfcLqbRNtivKmUQQg+YFATbqsIv+DovBYmXu+Sjz4UF1i8WbSwk9P6m7uSod9QF20GTAbMXLHegzDPIPTaXV3KnLQL/m29Nb7jUZnKhGb2aaESAmCDGxN1KCfidTgC1cOuQSJnoO37B4R+q67OFPuqiWnpMg5ka+Q7ApwWrtxqaGAbWMlpN9HHekb7Wnf23wjkMpN+uCzVOPbYabsycY9Syy1AiWD7YDbRYImL+S+nkgOWNeYBJZqq9TbyOZA4yZvCOQaDtU3hpIlrYzQxkylw84I1w9q40xbIyal0mMIKVTFQMrA6aE8zHOtdxILrItJXjljF+Yr2Lti+5ivSFYoZOlgJqAmw8bAFAS6Ef2h8mkzxEv0IEXWD/yFABkRazmz1+yyG9zle8Xxe2ApUG1JCuuuWeSXexib2+iRszrg7eNdCd6/bscjL9YQGT1WFM3l+K3EyodDDBsX6i/2C8SoSXifWlY57brkqYuKxatOMdHL2Yone6TcEtCQXam6x4jM+JukHhs6Mp5y69mpbZegvTZP5FuxPQ1OCMLptjYwrOtRB+uolpe/yq84ZrHTI3vLGpf6viQoqKViCKJsRrdAheVvQj6USwGVOaueSEv7/K/oeYIYBzyJS20T750+xmVKUuAJoRC0BmpUtA2Lyr+nqJ2c0dImxmITbEAzVUBZErlLNXHg9/1CIs7T7bfP88pswtwNV3MkjDQLI/lEB0AMCaBsvEsginhKRjiv9yvjOcxdFDM6+ww1jGvGd2UGrWpVCUcX459C80aKbuuhQvF9vzUtXJeqAiXEId1IDrEeal9vID30zlJudyY9NkrsBxnNDMuEcFrYPaK+7PVaG94PcKqgsXHhpIyI73KpfFc2WtZmbHXhP+8wE01tZs86dB/4Vmz19qMXaSNpVboP2B9xEppx4GlX20qGGVw5I6i/iKKxDQgBADZFq0TsK0NuvLZOpQAQU1JNZXoGSpG/LoCAbiGITafkTIL7w2IqOB2QTFXPDx0eOTFYwo7ZK+h9+CzGrkrekjGXldR6G4UGG+s5tiCuAwx5V3ohnnuXvSUpVPcL1agDXoPqEu9cf3eMnJMcyu/cC13dFk/HKvzf2Bdr5OlQVs8LVsQlloHsjshZqr6lRoLZLyGrUuvdRT7sOGLAFI+GmjvRVeFk+T0+PIhQATBmUdummXde1e0FODZVfhqWeCDmg/r0toLWTgTmQUshHzwQulhIZRXMjqBQzxRL+O+j4Rp15K9kltZbP4isOFKPc02lscWkwjYKk4e45kPMHsKYi4N/njWsrTk9o2x3kVtYd5Y6tZsPI+yztRthufsBdoDuRpMCvYPaFf4x8sntOnDYo6D1iG8GEl6ZgK2TmYOhl+ibJDVtqk88UyUKrTb/4Y2RcR3RP8e1m08o61YMWfFjZCutsI1R7tfH+2yG08MbuVQ/bOkibpdNy8Zk6y5V9PWt4+m8xWT7B6YRBXJSvt6YiL7ZGBOadZNCIIHmyVl+SeqFdsLQ67ref3TQCRTEMlj/y0FCGDaPc6qVCi1wBPPV7kEsnXibacJ4+0+8vb9KYLTQAE2MDf9fGjM23Hd3Wad44JSWOMgfwdRllXmRXuz1JFXGdni3Uq23+p9VHNT27iP8j6L5+pSb8dLxbvH8EwKlFljoWWe9aQO1JSuYvCaK1LFeeO+baUrC7frJrGszitXKuZ/mzsHSrj7dNt6e7DJhkO3Vyty9X10pQoqu4Y+OlEZ4mzpq3yScKX30ZU6OhZ1pexg72MHXdfwwxeOq75BgmDXMavCNuZPJJrqDrwQb2J39CJXY7zThFvDmvMhWH0t+J2AiMQ34DzvFh6DQWvejQPsMR/0gqTKd5TezmyDpbTtsHhAyvQiFB3jEKPEQTKFd6BTd5HV4lVm9rW262PiNHV73VnL7qYB2ivbCJLqTZnGFDfr8tRAopIyj43us4ijWxYruqxqDVsC4prmkPurrCtp3w3wPIaxG1G0hzeK9hJvQtGu2EENodaBV8tTL6iqfmDhRsdO5xjtXmyWEXHKUe1q/Tcl+rULWA4DivawdT6kAXblTC4U7QqN70FNCo8M9F6mobxFraFMtjBBllWxLididUNAe/blRlQJjCm1fdBQ67ibVMbfU0fYw0+0pkrYYRCNbrXKN51zsndxBIudUmp7VP+mwQGszPhwSyrFIhTtD2+11pXDyOcRL72UaAdq0ND5mvvuF+sy7XV0x2JfeD1K7XINOET9oBP/87Mt1lvOe3GJlDOjiEUu2sqBgta0o/G0+MC9O6X5OJf3DxjNGrHqwhL7KoheyH4so4HlAixQDJnJLCwfWHpZZmuMMxw6Hx8OIcEMOF2KYrpZWH4i/NQsKjgvDblO+qu22hvzLTDBUA+5Pj8kw2wgvP6FdJHWMq/6dJUOqrphyVPYdB5DwJ/zpMAhmw3OmUw5QYIP+MZkebTN4yU8Zkmp0DDrFROrKU+dHAKS+Sg/fattacL/4y5XmqVTZZJYBWjFsRpPsoB6iirvqAi8FB+Wl7Cpkk7ti/DFTgZABmwn8MgJkM61mo9VwGr3xrlrLI3Iv26WVF9mUZFzvlTgMe6JXQrNh1iATX2jfXj+HDaEUoG1QIaXCrB+HEwNt44sa5a3JlgS2zx3jW0hFf1BpcA0sqi+wFux7NhFIihykFBHBi8TPAcVumXq5QXMeeD6jVkjj2HDpQyaDlV2yIqOWMDuIcYNovvG9JQr7nPfmUkze4i0QxAZXn+gWhYo8YrZX6ywGKPfAqbqDrIBiEiOpb3R0X/U1Y2lxypZUS/DbkJaIyNfUKcaytOLWFUZQKIHaqXeyGOqxaKcGWDRxkRWMjJwJW5n+ma5BM6LZGUZeBY0TBG6N2+quluPFaqR5BG1QrrFOR2z7ZuHYtE36wDnyJ6wjM2FMhdKh0JQDCJGD2WFPVmxMnhQHMA1zR1sKAOcgCWrTGMVQ67q0pessH60u66k/hj6MDKhfK/GdXjVLVYC4xHLsqpSMq/R9ohse3Ifg6tQPIoK3c//33sVxfM7MeC5B3JptxvrQLWiWCmTPeqPJATzCZJ3ztso+0W4vBCG3TRwYX86PXQjt9eUyQbE0rkegEotFLbnIn8wRGrnglR5U8NqXl6WdH2Xh4Fv3btrNHXDDn7Q42SFMlmMO8dqyBkBS4kLGlg86sw27U0Y99x0E+OCrW+x22s6rydKkpRjAKIGhId2nM3DnbLOBdSTksB0O6E2htQB++reE8FY89i9+s24bEHCboqkYqqI25GHXg+EMXTCARNCp4y0yW5je7Og7Jx0BVmmW0rtpJEuGhwp1qAVRpZszhqDJ/okJb50s1CLi7wCG7bxehiBCjuGdkbfxPW7YaMC3at18DFnz6wGryW8ETl1QAXo3nCAKtiwzLUttkc10AXT9BZ14+yCSeIHfhPVf2Z6BDyPadaaNV5ZxZXN6UqSm/25EnLov0hFPQIbV5JzV5NtN2myXlnLYNqRbbEge0WqgZFbaWGVugaWob77+dwvubjdIv1ls7iENRENS0to/4ZVZ5zdL74HkBvtEdQii3KKbaN+x4Lu1MTRxUCGGiDRwDEYuP5syUuqyLHzDt6IqXEpABN4/Zpe4OBxI9gSSqCmEpxBKz4jMcxAwKoD7MEs8TGUzuWZ+iRqnrSaOxyPzeUmgSKA44kd7K3aBegmGPNAooCqF3Y1ZeIBm23O0iHJ+pOwk7hWgMnHABabkhHd75GBs4pxFFKtPRKQ2PIEMuj0LmG9S7UZbPUxVDzSdDkhBFi9RCDyAI38vIaBVablxiqvaog1xoSY78g8EB7SxiaeCulSWBpHlXAzwYZL6fpr3dtz2gVAnSG42WsliK3qTM/dWAMMZxGfvAi44Pwp3EUdFPaG6SyO8cojwqI0Pr+aJfh0pwMfY9gRv+zNnbLV0bWRYGzU/pPXEh0qiuDqZOKLEa6oepnRqNmj0zwI7z3jeLz0tqm/m7FbAMWqajrhep3H7WAKBrfqMNbpRYvBWJkKAhNCxHiP3HzAEmAKXnYjmKbnmdnPIQBaVUBBcWXVmjAKyVPmlPBxHS8Y1FZWBFfqC5+NtQplmWgGuyrlyic/VbDJBGcGuXziGfey+XUvNxoMPYtn97HGAtfHhCFVTvn8YOD/CnmHcSP90uWaY1/CoSUohHdasFKsV9NzWnw1RS0FDgri8Yc7RvpLEMOJMRWxHBxSUoKA5yPWTAh9Ve3AtKoXU6UAVCFubZUPZoq2ZFvIB2klizBYKkR8gBNkmyzQtwfgkBj/IyC1exdx/BnaNA/HAQbiJjgXL3gWEF+5qAzKfrNOeTeFzbFud3rITHPVeLyCaJUFprEYW/CJGNbuBHnPaoRT5V40+pk5GggYhlgRTo4TwFpj/ULK+MVV3U6pMXNndAcxW2jq+MV1BLVGrD5qLjGfQim6JkhUDqCY+2QzF6tlDnc9stKAQULGwMxuaM4eNcKUiaMYuVkDzvjKKAhTxJsHEFjbAVhsh80FvQ3mLjuAh/FOp8b9T5wb9Oiwm++C+5GIMjFIWnswL1Zg7R2dhlkjHNbDR+pN94C3wbFaJKTDR/HrOLAS0wZVKl3CRM661LPZpHTtuoxEiwuSC29kRh3hVtWGLvAqr0IcQ22DI+e0r0MgktXr3i5YmKs5ddufFjiY3qG7eUe4Wc4Np9DoOfLcwe1s2JObG+02uqLKlkpg4bIBssY2YLWErEAtrr+US8pUuh7HgYNHVm15bdsAraTwe1LF1DWAVMVbqOw0I+l6nvYCOOvruG040P/cvVrpwadC0vPtcf4JQhnlHt8ErsDfAtEbWrFNzqnwFuvhcPpOKc9otF4Mp0owRbE38iXIG/kT5tAw/hZDfm1+iET3HSxfPerGNQz3mLyvGv5m6c0MoorIkJd7GG8kSKvhbEAvPzly12CM8ylrT/l9AA8cSEfjm0gzET2THx0ePvJ52Y5oKRtqnRp7kgpg4+XVwdtz0oEzb9pvJCrLYI7ldI5U0HxW5/ZfmDFky5eNOceSKVYI+KEZ87xR0iKxMLEuyv4bcwxUOCDbheLd5XlOXx84Qm8W8UbJbM4jTIR+qzYhDwN8+7YQxFHC65v/9XQxU7Tt6CQRmnC4Rz34gfq32WO3+EkWMBuDt8XG213kXeS67XiJ10c4cGogCSJpC+2LaGMjSdlpdlVgnhLp+mWHh03xaC5ifOgALTPkuxqpQEzR6ah1iHFr2NI8vIljoOhrz+Vbz4FltLrT3uvAnJ+s0cswnHNWgZG4t1PdI6hmgTz3y1HbLfnM+aa1hi9gDe297Mw5SQtzeZUHflFMtu6rc2hHJ3erK5dcs9PhzEAczfXpZvQulvYTNSU8PFisw5o7/oRoobtcPxebU49r6YaW2BdozD3XDgqCc1HM/k+H8xTD0OCWQc1Fe3asnFNnQTh7c72n/s3dDQY793ZI4yuc27iSP3IeGnWWPWHDvmdCxECYmlwSfWynTnZaLY9sZ8dL5qPclEn01FYFgXcn0GX8tmLlBTZda+zULPV779S9wMxt7XmIdYYxe5dLNy8Bdk8Yr/Qbzg2UcIpk73I3/5zxyU0NPBXTUsdX0w868I6Rug/6ZuE64m7Rd5+2u9yUnwhnjs62m1yPCo9QpjhGiWufR49maZadDFfSMP9ZgO4kDbbrTlC8Z2C7tTOFYYFeATgHFg9b6OTyUVVdAVT2O+I0j+YH7LZOwSU79dD4lnknZU/OHWecNjjOeJ6dkv32yYP/AOwkT66LWdv18e7OXoSlxjM3PhIR0mqvSP/2ndqjFGaJNDV9sJKr7cFdFjCzuXQPd0c92Yd+CBsz18fAW6aWYmosdpzr84gn01CPfAWTE9vfdgZXPfBmTMBIZgmffbglyd6LgBD/3mHuKixs35A88Fx+B9k3DUKshm//Cj+XwngyOGyLz2WwoZ4p8geTnz6/vSYMSRnazYZK/zBAA+t/aP8Q/If2T8J/aP8k/If2T8J/aP8k/If2T8J/aP8k/If2T8J/aP8k/If2T8J/aP8k/If2T8K6PLzz8VKlz4A3HZ5nbjna3dlkOP3lMGsG5ui8HASxscc0U3noEpOUeyMOBsvn/NMPAjsVNd7zU4CznF4J2jzbx08K3t/93emNU07+CczFshvpeAR9/zFtWjB9lDxlWRF7PeouFz9E+OEg2eSyAxBuz/LVBcVZB5nJzrVr8Sh9OPjO0xgYLOxQzfozskGG17pEsd+dL2fndWGiYLQ+z5a2e0i/jDbJTgrO7hDOvy30PdxFLM/VF5TClHTStSfTce2VNsfTie0mIs3d5gmrDiGR+w1EX+wuMrfE8r+E9MLd7B8SGtPZLmT1yB3B96z8fvdZmi9jinM/E6Z0N2k8RaMIFpNdqsgJZfX4Y/nV0c4hcu4iOabzDy/mep4eRU6ZrmNn94k8mnfT+YhtSot9d/Iths6buPsspa13//Uh2WkMhFzdb7UPU/fKm0zomrr/hPiSn8ZACR18t3JtsWGnoryQHN8vMVnEoiLo+mPVE/aVsBHHlCPjN4V+hrWRzkeKh+vDKRIdYG8plYCXuX39uINPEcdHvzG4LIREOXF+srhGgu3k21lqwxdWEX+2DaE+iEO0Gp61mGJb009UjJUAHjLWjN7Qa+lcftqPz8F6U9RdWQXQV9u5/HKxyugC7aa19cmIjcPWjV8vsRltdDnHoQbcoBv5D1TZTPOHGVQDHnv9i9KYAdT9VJ1LoACMoIq/F5+6EDtFoYBCyKYd/j6waRn1Dsodv5oG8qOweRqmVwIwjK/5sNtvgtqzz94cyvlNkE0HfwEwL+vPFOxNWei5ztq/OjHsZ4HNkq+lud88wf2bYFSP2t4ygs77PwO61ta3RdXVKgxEb8afAdyBW5VSmSptP38KrCrH22fHrmrWbxP4EXB2WWmf7Qy3NBvjjwF2+pTaEuaMOJezZ/4x8CYXp9w1Yd6tVXh49K/DaF9+WvmsMDv3N6DCNZn/KWckDxUnRMPA/D+xqXmGCtyGf2hX8wgwJrQ45puNmfxzcKgay+eSvdUm+6D7xyDQYBRjWdOt2U1gktOfAwgHlo+cHCWk0jN48BM2B/9ovf5dEehpcG/k/qyqojyLaz4pXf3oKGQDmt4C3Y+DwnGehWCtSFS9cTklBuufrwV73/3S6/44D/r2Fji1f234T+bkwW25XveduuAcNb32j/NAhX9Pav96f70+oNn6bXF7D1pvkuuXIY82fY9fwqMhZGgD8YeDh9X4eYzyjy/BRkH76HbJYrBxA3K4u0Y3SuLr4efxJtv9Rr84e41ce6lOon1kXKLrJepFm6MusZFoU0p75nw9WIxbrrdoLczz2r55v4D2PUnjMAwPcXrdhCQy3EN6TQ/+gYSJVoT2KZ5RVCfH6XLsD213OpwHo19AOzI216jn9/ZXI96TNHKiS2/D6F1I7Q7RJ63JerCftuwRQ3v9O2gjNx8vhXpP/kih9nRmn4dzb3Bejn6R2jkh1F6jrbWS03m4bF2nAu3lYPwLTBL6SXpIkiQk7vbQvXZvcZjuu6mfdANSKJKt9Xpqj1uLmXdYL3fjQWv4G2gf7MHODuxlGC+DgT1I5odZHPiDuTsIjkW8TZy8qtxH9m+IpHPcHPf7y8baX7Wjsdlf9ruOFmmX4+XoFKD9oNkJi+HPf+39bHsAAAAjSURBVJm3EfQqc1N8+U8g+gKKkKhwpf4I1oXw/8ID/J+B/wOSAVLPa1ol6gAAAABJRU5ErkJggg==;clipPath=inset(0% 0% 7.61% 0.55%);" vertex="1" parent="1">
          <mxGeometry x="130.31" y="360" width="49.69" height="70" as="geometry" />
        </mxCell>
        <mxCell id="hDKMXDvTqqZTj5qX6rIO-9" value="" style="shape=image;verticalLabelPosition=bottom;labelBackgroundColor=default;verticalAlign=top;aspect=fixed;imageAspect=0;image=data:image/png,iVBORw0KGgoAAAANSUhEUgAAANoAAADnCAMAAABPJ7iaAAAA8FBMVEX///8AAAAPd678/Pz6+voAbanS3+uenp55eXkYGBh1dXVUVFTe3t7r6+vLy8sODg4LCwsvLy8hISEqKipJSUlcXFw3Nzc9PT3y8vKFhYVWVlYcHBwiIiItLS1CQkI6Ojpra2uTk5Otra27u7vAwMDU1NSxsbGQkJCjo6OamppkZGRvb28NeawAc63R0dGHh4eGtM57r80zh7GlzeOTxdg0hbhRk7V2osBUkbhlnL5PjLhgl79pqsSjv8uVudSNtsuuxdquxc+DrMC70dzM3e24zuGct813osh3pryZvNbN2eJ/rs8AZKqr0N9Vl8YQdrR0Pv8BAAAQkklEQVR4nO2dC0PayBbHicFiQEggDxQwKqJVhGrdSxVdq7uubh/b2+//bW5mJiGvOZmTkMTYu6etRXJyMr/MZDLMHP6p1d6ayRl3q+dbjFqtnrEksMmZIspyziVxAuZ8srJEdPao1/Mkc8qQM5lMA6YvorNPrmQUrZ6t9SRGzLAfgowWFF1aJ6CwzkgwuYCI4XfEZ9hxkEk5cCXBVJkXEBcRU2eciIjrTGZWR55lREFYObDN1vET11mtLkdPPyK6zKoN24AQTixcDdsQEF2S7IL5ZUT1IDL7I2PQcF2ZLKeIiKgzLxitO283TMfj7YcrSN4RUXcmr4WvWhbyTo0vCPb2ky4iIuAqnnt49P1MZq6Ibgp5p5bdkyCOiOj1gxHdc4Xt8byuRuyeMqK40nBNNhSRvk4zBsFe8KkiIpyyFTHfsVD+8dKMViKGPyENSYnYsBd9R1Gsvh58tzf0fyKM4zi0+t3VL1IjBRr+jDSkoGnuv6Cpzr9uX4r7RR2jv4Pvk4jWfuCNNGh4i6CpmhormsIptOMXc3R2VXiOvL3Dv5eBJqnDWDkkqcd5T4mfAv7OShw35viKtYasDIWzM88xVr0loJGixYqnuP9CBVbjrYo4xXbmOVKnkGPxaKxgkeIpgZ/BAseKrHB25jlyjlI4mne00FGVyP9+gSNFVjg78xx5RymlG3kdKxrN2p2029slWvugaDTWkmj7GG1Ndgo5Ct+2GJhaXK0pUrDl9w+Pc58bBqxJ+0nnQiyuQarRjm06bhdysIg1yXFJF1PgtcYZWqi7xbfNpnOcYbHdiKZyBkOsbRZyTM+adLBSJBqJHmPz3iiybTZJayRHLwqNXWcKn4y+LqrfbLIPR8X1kGoARmnFyajZRbRNt/Mvsof0cUa1ncku/8IroG02vcin+cZ1LTDQUggasfb4IMbFhoNKrv3mCq34MaTiohE7PjPiZKxtnuXVNktEk1Q9uCnQNqOzBQcnebTNMtEkK7q5PZ5StFgDlYYXa7fNUtG6PJfjMztORgcwxnpt83VrzTUOmtdW12ibJaJpEFqdbQ98WFaC977hbgdYl0j+DFEimj2y+U4y267Xjg8DbTN0ARqNbc5+ybPYGdDSfN5qeBUmqaPuvgEEdGuHvN6ZbIH39ElkN8G6VXq0VAsFDE21upqh6xICjVh7bEax6O0hsLu8I05ZSYdW3/HTMFCLIQxNs/SR3pWkAd9JZheZEjhr8ofD4DoAG2O3ArvUxYu5KdFWyTjITBd3eKwNLV0SoGmtSMSdoy0tSBZEw2S6NFXDnJoGdnjstQK5hst0YbWmGL0hKaUJBCU+PdOsxSNus3u6FEXDLMBfmMZouNcycWir9r3KSBAcgKFZSp+edwCtRjYODI1/tvy26aPRjAGRNSxp3+hLhn0mdA0sjKIzXRha1+30EtD0qWqDEXciaDIm06V2JhkDqzWQWogPNf6pYkWQxXkAZALBtnT3HjUFvJzNlknAgbX1dhgNk1Hm2HuJdLSt7v5Y6BqIuEojQaBZukeWhNadOp0MlFYWQUMmCRw6aEa3b1tCtOB9JJD8k7xTQ9ofdSVvVfYA8CLjKtPqeUFjFkJDp802pL2W4dSaIepGwhHdbC1h6kBDJfcz7xPZAeBFLkXbtGpQxBAaNtOldtbqOWEHeleAFr33u7cA0fkbS7riDyfOAS/q0p/WoHy5AFqKBJOmbZrObU00oxWPiMl0kWtjy7vOCFsT8GNrzxo4BPDR0mQmNyWtpwpHI9nSwp1SBEb+DpsIDbIVWj1N8gxmoCWniuibczqCH2pEaBIYyEUbpEsLwqFlSwsK15pjW4DjCIOm0FpLcXhkraWIGLIc0cLDY4SVOjciQAObhosG3fEBeztoWqVrbRfw6iLQnPtTddE0sNbcQWYimlrha8057SAam5oDO6s2m7urFtppkCyhQWpKMlp0bgRjZdUand6Aaq3LtifVWga0raLR2Jwwm7hJ6kYcj2LQCkyJ0VZkoh4yZzTWINUC0Xwy6QLw2i8OTS0wA8GxoffB5j3gVRyaWmjeSCAlBkKz2GZwrTAzmqqUlRJzCHj1C6o1p86KbJDBlBgBWu61phbbjQRTYpLQnFOQM1rxnb/ks0Ez1DZrtsWglZMSA6PRZpt/N8KsjJQY6Bg2a7bggnzl0eBj2Gxy+S2jQY3eTbj7FdEMHBqwqArZW0KDlucAKxUNWg1CNch15kaKUInJhBabhKdzI+vMaBWhEoNFC3T+nBWLNhvCZ0crQiUmjHYEeLXYLbsNqcS02YeTLGjD/Z5zRotQicGhTdlAqw2pxLTZqmoWtJ411LN0I2LdArKW3RoMbFWERr7R24ZW4MP3NaxKDBtDqroiHENmUolpSANzX7dappKEZnrdCBAwvJaNVYmhtabbPVW4lh1PWEGk3DSMgdSzLckeJKEdeGiASkwQDa8SQycQ9rp90X0to0rM6WDYNY2WKQ10DJpwwTeNSgyttX1JeMvOqBJz0qJQht21xWjb0H0khIZWiXE+ZdvWnhAtq0rM2EEb7tl6SydoE8DrnJa8ty1epk8jpdKU+lZPw6KlVok5HeyNWoZuGX09Ac1tOqiRPx5ta08faZL4q3kZVWIafbNHEgJ7dCyVhKb3FE56MbMoGk4l5r1EZ6WFyhUZVWIakjE1TVOnKzFJaLbSlVBoaJWYWlPXvIGWwDWTSgz5Gqyue6MRGE3p9xUkGjIbR65deIcVjkYyqcSEB1oQ2oVkkQEyFg1hREAr0+e1NCoxQesAXrt7IzISyw9NzoyWVSUGQntv0asiES3VMj399FDqp2yw1tjm5FpL9SmbnPxS0T4AXiI0N/e4ynMjh0cn1Mbj8enpaaPRODs7O3T+uNM+0+b5+fnBwcF06vwl94xWq2UYtmG7628VntGCNJXgDUFTKjwPubZKTGXR1leJqSqaT6SFCxx95X8nVo04VhSNIxQV0QuIkcU2Vi0lJqASk2zQN/J8y1Zr5ajE7Dr9/en4lN4AjhybEOt0OuyjqHR6/OHDSpmH2s7ODhm5rrWWXY5KDHRPPmSbwa8qZ0UrUSUGQnvPNkPjsDXW14biCYSsFk6JKR2tPJUYaPLjsCC0ElViEtHU/NFKVIlJQnPuZ9CH8PXyRspRiYESQw7ZnTpntFJVYiC0MzYGKQqtjJSYBDTiAM2bVx8tqdakf9HS2FtCq/AEwrpoVZ72gdAaGDTOZF11VGLWQlPjaBVSidkToJ1AUfgpMZVSiYHQToVoWiQlpnIqMRDa2EMDF3wrrxKTiKZaEygi576GVomxscPjelaVGLpenoTWM40jhFBApBxJdmEa+rBbkkoMhHbibBu0SIPkR4yhpVOJwaCtqxIDFeeEqMQoeqcGRIyi4VVi9lutglVixGiWKdEG+VZVYhLQui4aTiUGlbmZQiVGXlslBirREVWJkXC1lkIlplueSkwCmmSbw3GtCJWYUSkqMUloUn+A6fxTqGhs2dNiVWKCKzCJaBKcI1x5lRhNg2K4aGAnXXmVGE1dE63CKjFDyHGCQau0Ssx6aJWe9hGhgUWovkrMCPJCoVVaJUaHvDoItEqrxAjRQInKyqvEaAloqgiteikxIZWYBDQ6rZOAVnWVmD3Iq8O2JzbI9GhlpsRwheGJdZgHpCNQWaEAXyUmEc3xyxmtTJUYSPPe6yGLQCtYJcZLiRGhQUorb0AlZh/yctEg6Z83oBIjQsu91spTielDXm43knutlacSAzyEYdX5Q+Jole38pRVbEhqp3GLQShhDKtBDGFYDrZzRykyGT0CjzfbtosFF+8C2g2hR0XuclYkG1tpxElp94pXxDaNxFJ93TgIPmKhwSgx41gG09mkruHuVU2JAtG0O2vZhN8RVbZUYsEFF0eTORezR52pCg+ZbmSoxYIPaZp0/k/uXJ7v9KBexg6OUD2QrUyUmodY090kG7SPTGsafQa9sgSnXsJWpEgPO/m6zgdZ0bOiqoluRb+qN3md7wlwpKjEtptyWhEZUYlhRwr1H/yz2vYcKqcT0dWtAVWIOIK/tVV9hDHuB70wNxpzLq0oqMUNPJYb/EAZ5cr5qgdbIXpEdHHGv/UqpxEw9lRjuaCP0qDXvISLaVgeKXU2VmOgYsd0IP5uyvz8inWM3sdtwVWIQV1tT0uxusSoxiqcSE0Lbfh8ZbUj7XQesfwp+8TxckgqoxOi+SoyP1tmNfxW7Kykm4gnF1VGJsU2nKoZMJYah7Rydx7AcGzUnqCFDpVRiBp5KzK7XbcS/Ews+OpRTkiqqxJyPqdhB9Nu+tNvAnqtaDSU0VbpKjBQns0m3gbpNpbLSVWKiZAP3Ab2Anlt2K18lRg2SnU9WYdDtG13A0lViNNUlU3bDH1JyJnsFlRhJJaMN/VBwV87JykVzhlyneTybHWWlok3TzgGsZeXN+Q93J8cfOp0O+ZdsYg+MfTDLrLVXsvJUYqLiL5FXsEpMOAzXMaBF47/5BlRiwoF4jsGj+K+LSmRKUIlROL+JyFahRGS+Y87fppd3qV20QioxSWTsdzGZG0xM5jlqUuuClSafgUE9cAQVR0bewZDRImPIJE8lxrP80XyVmGSywBOWBI6awtFL456/YdAxfzRN4ZSOR6aqWEfOyeKSqaF3c0cLqMSIyPCOMRCALPR+3mhBlRghGd4xggKRhbbkjOZFDpURJsM7hmBgsuC2fNH8uIFSJpEJHVcRAzhJZIGtuaIFj6nEXnDJBI48oGQyf3uuaKFjKjiyRMdwM0wY6YQUGF2PAu5rVbF80OTmVvUs9xmYf+1NW/7toTItLO95VJFKTJaI2fbCr4GkiJhrwCxJQbI4wSRtRIRKTDpLrRLjutZRCxbpImLIUkT0z74cTyMRlERcjNqrRkyrEuMdQ3yGvWfP4CJi6ixdxNQqMW5BxJou/to7JiJGJcZfz8cUMb1KzMoZ5YSPiOgavXB1zMnKoBJTY1cFCg35PCSsSoyMfsJSNpWYGva7+H4LF0fEKY7IfpMUumZRiUFrXuAzXdJGFGcARFViaAtGtWJMObygiIhp7n6rH4KI/ut3KexbGudXt9rmL2u1jV/WuGizn2UXowjjoc02Lj+WXpAkm8+df87P+Qb93/3j/uXuQH4QtBmppdmMuM9mzo+fV7/9ZzGjPjO6YT6flQTBsdnGp+vlz7vlzXJ5Pbu5cf6/XW4u58ufi0+z2ffb+Xxx51D/nC8WN/P55sb8xinv0kObP27ONmcEg5wNx3/++yf3TG0s5ov5xmLxemROQe4/f51d3S/uNx8ev1/dP3x+ebz7Y/m0eX17s/hjef3n448vL1/u766fHq4/Xl7fvzxcLh9dtKvnx98vP+/Mnp82nt49bf62/Ovy4+3zu6fFu982nx4vnx//+vb0Gaj5UtheftzPHy4f/ry7e7h/+fjw8vn+76e//9r89GVxdXl//3L/5+W3L98+XV8/P399Wn67/+Pl8Z40Mwft5uvz543H77Pn78uPXx8WP/758fh9efn1883z4r9Pd1+//3j+evP4imi0ATltakavCuf/Ob1E5vStn+xS+TlzrhvqMCMv6XsO2ny5uNrY+Hh7eztbLK5uFvPb24Xz4mq+vL1bfJ9/XNzcLm5eC4vaLHats8uHvmAdArl86FuEmb1Nr7WNjYS+5jXray37f7tl/xr2PztSboIqLB0NAAAAAElFTkSuQmCC;clipPath=inset(5.84% 14.68% 11.04% 14.22%);" vertex="1" parent="1">
          <mxGeometry x="253" y="360" width="56.51" height="70" as="geometry" />
        </mxCell>
        <mxCell id="hDKMXDvTqqZTj5qX6rIO-10" style="edgeStyle=orthogonalEdgeStyle;rounded=0;orthogonalLoop=1;jettySize=auto;html=1;entryX=1.009;entryY=-0.009;entryDx=0;entryDy=0;entryPerimeter=0;endArrow=none;endFill=0;dashed=1;dashPattern=8 8;strokeWidth=2;" edge="1" parent="1" source="hDKMXDvTqqZTj5qX6rIO-4" target="hDKMXDvTqqZTj5qX6rIO-5">
          <mxGeometry relative="1" as="geometry" />
        </mxCell>
        <mxCell id="hDKMXDvTqqZTj5qX6rIO-11" value="" style="shape=image;verticalLabelPosition=bottom;labelBackgroundColor=default;verticalAlign=top;aspect=fixed;imageAspect=0;image=data:image/jpeg,/9j/4AAQSkZJRgABAQAAAQABAAD/2wCEAAkGBxISEBIQDxAVFRUVFRUXEhgYFxUXFRAXFxYaFxYVFRoYHighGhslGxUZITEiJSkrLy4vGSA1ODMtQygtLisBCgoKDQ0OGxAQGCsfICItKystKystLy0tLSstLS0rNy0tLSstLS0tLS0tKy0vLS0tListLS0tKystLS0tLS0rK//AABEIAOkA2AMBIgACEQEDEQH/xAAcAAEAAgMBAQEAAAAAAAAAAAAABQYBAgQDBwj/xABBEAABAwIEBAMFBgMHAwUAAAABAAIDBBEFEiExBhNBYSJRcQcUMlKBIzNCYpGhJIKSFUNyorGywRc1whZTVFVz/8QAFwEBAQEBAAAAAAAAAAAAAAAAAAECA//EAB4RAQEAAwEAAgMAAAAAAAAAAAABAhEhMVFxEkFh/9oADAMBAAIRAxEAPwD7iiIgIiICIiAiIgIiICIiAiIgIiICIiAiIgIiICIiAiIgIiICIiAiIgIiICIiAiIgIiICIiAiIgIiICIiAiIgIiICIiAiIgIiICIiAiIgIiICIiAiIgIiICIiAiIgIiICIiAiIgIiICIiAiIgIiICIiAiIgJdYcbbqpVPEc9U90GENa4NJbJVSAmniI3EYH3zx2IA6nokFlrsQhhbmnlZG0kAF7mtBJNgBfqSulUJ1PQUlQz3qSSurnHTMObKwEi5ZG3wwsHnp0uSr4FbBlFhY5g2uP1Cg2RYRBz0OIQzNzQSskaCQSxzXAEGxBIO4K6VQm09BV1LxSySUNc3fK3lSvAOhfG7wzMPnY9bELvpuI56V7YMXa1ocQ2OqjBFPKTsJAdYXnuSD0PRXQtyLAdfULKgIiICIiAiIgIiICIiAiIgIiIC1keGgucQABck6AAbkrJVNxhxxKqfh7CfdYbe/OBtznnUUjSOlrF/YgdUg8nyvxYk5nRYay93XLH4hl313bT6b7v9N1NVS1rRT4WBS0LPAahrQ0ytGmSjb0b05h+gO6Pb/akpgj8OHQOySZNBXSM05LSP7ltrG3xHToV0V+JS1EjsPwoiNsVmVNQGgspRb7qEbOltp5N6+S2HvdDhf8NSwulqH+IxRDmVMx+eZ5Ol7fE8gLcU2K1Oss0dDGdmRATVFvzSOGRp7AO9V3UlFRYXA+QuEbb5ppZHXkmcfxPedXOPQfQBU+fj6urnmLA6IuaDZ1RMCI2+g0F/Uk/lSS3xFlHAdM43qZKmoPXm1Ermn0YHBo+gWf8Ap7hX/wACL/Nf/VVxvAmKVGtfjEgvrlhFg3sLZR+y2/6St/8As6y/nmCc+RYDwHTN1ppKmnPTlVErW/VhcWn6haGmxWm1imjrmDdkoEM9uuWRgyOPYhvqoB3AmJ0+tBjMhtsyYXDuxvmH7LSHj6uoXiLHKItaTZtRCCY3eo1F/Qg/lTXx0T5q6HFP4aqidFUM8QilHLqYT88Lxv08TCQuepqpaJpp8UHvVDJ4BUOaHOhB0DKxvVvTmD+YDdTNXRUeKQMkDmyN+KKWN1pIXDqx41a4dR9CFHUOJy08rcPxUiRst2U1SQAyqH/tTDZs1umzunkoOZkr8JIOZ0uGvtZ1y9+H3213dT9/w+m12jeHAFpBBFwRqCDsQqVGz+y5RTyeLDp3ZI82ooZH6clxP9y69hf4Tp1C9cHccNqmYe8n3WYn3BxN+S8aupHE9LXLOwI6JYq5oiLIIiICIiAiIgIiICIiAiIgg+McXdTU32IzTyubDTN+aWQ2BPZou49mlV6vo3U9PT4NRvInqcxnmHxsjJvUVB/O4ktb3PZW2rwmOSeCokuXwZ+UL+Fpe3KXW+bLcA9ytY8LijqJqw35kjGNe5xuGRx3Ia35RcknuVZRBY5IYGU+E4aBHLK0taRtSU7NJJj5nUAebndl3VE1JhFBc+GKJug3fM869fie52pJ87lcfAkfP52KPHiq3fY33ZTMJELR5X1ee7uyq1Q043jBiOtDQnxD8M8oNiO4zAj0afmWtIxgvD1RjUrcQxW7KYEmlpgTYj5ndu+57DQ/UaWmZGxscTAxjRZrWgANHYBbsaAAALAbAbAeQWyzbtWUWAVlQF41VMyRjo5GB7XCzmuAIcPIgr2WLoPlONcOz4LK7EMKu+mJvVUxJsB8ze3fdvcaC6081Ji9BceKKVuo2fC8enwva7qOouFYHtBBBFwdCDsexXyqnacFxgRDShrneEfhglOgHYBxA9HD5Vvf5faLRgcpnZUYTiQEksTcribfxdO/SOYd9C0+Tm36rhoKN1RBUYNWPJnp8rqeY/G+MG9PUD87SA13cd1IcdsMAhxRg8VI77a276Z5AmafO2jx3b3Km5MLikqIawX5kbHtY5p0fHJYlrvmFwCO6mxycH4u6ppgZhlnic6Gpb8ssZsSOzhZw7OU6uCkwiOKeeoZcOnyc0X8LnMblDrdHZQAT2C71lRERAREQEREBERAREQEREBVr2i1LmYdMyM2fNkgjPk6d4jH+5WVVfjYXfh7Ds6uhJ/kDpB+7QrPR0cS1baDDJnx6CGDLH6gZGD9bKH9lGHtpsJjmkNnTB1RK46eF2rSfRgB/Vc3tymLcIeB+OWFp/qzf+K9vaG7kYBJGzQGGGLTo1xYwj+m4+q1Jz7qKFxH7Ta6rqOThmaOMuyxBjc08x+Yk3sDvYDQbny4p+J8eoHMfVPmaHGzRO1r43ne129bDa4O6kfYPTNdW1EhGscIy9s77G30avrvFOARV1K+lmLg1xaczbZmlrg4Ftxvpb6lbyuON1pO1wcBcWsxKm5uXJIw5ZmXuGutcFp6tI1C+d8c+1Sczup8MIaxpyGQNzyTPva0Q2AvpsSe3WxVHCceD4fiVRSzSuc6mePGW2aQDlcMoGoLl8+9jdC2TFI8wBEccj2jycAGtP8AmUxxx7kbbVPEOP0YbPUPqWMJGUytY6Mk7Bwtp6GxX1P2cccDEonNkaGVEduY0fC8HaRl9QPMHY+e6sXEdAyopKiCQXa+J4N/S4PqCAfovz97Jax0eLUtj95njd3BjLv9WBXmeN4eV+k1Sva7hXOwuZ7R46e0zCNxk+O38mb9FcjIAQCRc7DqfRc2LQiSnmjOzo3tPoWkf8rlOVpF8NVba/DIXyaiaDLIO5BY8frdeXs6qXPw6Bkhu+HPTyHzdA8xH/aoP2GzF2EMB/BLM0embN/5KZ4J0diDBs2umI/nDZD+7irlPYkWhERZUREQEREBERAREQEREBERAVW48dkFFMdo66nv2EjuVf8Azq0qC43w51Rh9TFH95yy6LtIzxst3u0Kz0QHtqpDJg81hqx8T/oHgH9nFOLmms4ddJF4i6mhmaBqTkyyEAdTZp0U6HMxPDLj4aqn/Qvb/wAFV32O4iXUb6GX72kkfG5p+UuNvoDmb9FqXn0iiexHFI4q6SOR4bz4g2MkgBzmuzBov1IJsvq/HPFjMOpTMQ18hc1sUZflMhJGa25sG3JNundUXiz2Ol8rpcPlY1rjcwyAgMN7+B4vp2I08+gh6L2O18jx7xPFGOrszpXW8gNP3K3fwyu9p1asK4mlxyixGm91EX8O5rHB5cHSPa7K03aLagfqvnXstxdlLicT5zy2ua+J5d4RGXWtnvtZwtqvvPCvDkNBTtp4ASL3e53xyuO7nW/02GypfHPsqbVSuqaOVsUj7mVjwTHI75gRqw+ehB7KY5Y9n6LFv4yx2KkoppnvaDkcIxcXke4Wa1o6kk/pcr4f7JMNkkxKJ7G35DJJCT8ObIWMBPS5d+xUnTex7EHODZJYWNGgdmc/KPytsP0uF9Y4P4UhwynMcV3vd4pZCBmlIGgAGwHRo/fdNzGal2evk/FHC1TT0s9di1afenSNFO1khLZCdXgaAtsL6N0AavovDWJyt4fbU1bnF7aaV5c/RzmNDuW51+paG69br5diOJVtZWsrK/C6mWNn3dOGSNYwaENLiw376eKw2Vt424qkqcJigFK+nnrJuS2F1y4MY8a6tabO8I26q2XgnvYrSGPB4S7d75X/AELyAf0aCpPgR2cVsw2krqi3cRu5V/8AIuouZhuGXPw0tP8AqWN/5K24Iw11Ph9NFJ95yw6XvI/xvv8AVxXO3e6sTqIiyoiIgIiICIiAiIgIiICIiCExvGXU09I17ByZ5DE6S5+ykLbxX7OILb+ZCR40RiDqKVgaHRNlpnX++scsrT5Oacp9HBdPEOEMq6aWneSA8eFw3je0hzHt7tcAfoqozm19JluI8SoJNztzmDQ26xSsP6OI3C1B3cNv9zrJsNfoyQvqKLyLHH7aEd2PdcDydpsq7xtRyYZiDMapmkxSEMrmN2INm57d7DX5mj5irDLlxajZNCTDVQPzMv8AHSVLNHxyDq03LSOoP1XfgGLsroZIKiINmZeKsgdY5CRr/ijcNWu6ghWXXUS2F4jFUQsngeHseLtI/wBD5HsutfJqnD6zAZXzUTXVGHuOaWK930/mQelvm/q+ZXzhniykr2ZqaYF1rujOkjPVvl3Gilx/cNp1FgFZWVFhLqD4m4tpKBhdUzAOtdrBYyP9G+Xc6JrYkcTxCKnhfPO8MYwXcT07dz2XzrgmjkxPEH41UsIijJZQMdsALjPbtc6/MT8oXPTYdWY9Kyeta6nw9js0UVyH1HkXevzf0/Mrxj2LsoYYoKeIOmfaKjgbpncBp/hjaNXO6AFb85PUcPEj/fKyDDWasjLait8gxpvDCe73i5Hyt13Uo/GicQbRRMDg2Iy1L7/cgnLE0ebnHMfRpUVEG4TRyTTEzVU780lh46uofoyOMdGiwaB0Av5lcTubQUmW4kxLEJNwNOc4antFEwfo0dSoqx4JjRqZ6prGDkwPETZLn7WQNvLbplaSG+oKmlG8O4QykpoqaMkhg8Tj8Uj3Eue93dziSfVSSyCIiAiIgIiICIiAiIgIiICq/FGGSxytxKhZmnjblmivb3yAG5jv87dS0nrp1VoWCgo8hzluM4R9oXtAqoPhNS1vSx+CoZqBffUHoV1TU0OIsjr8Pn5NTHdrJLatsfFT1MZ1Lb3BadQdQt8VwWammdXYYAXP1qqYkNZV2/GzoyYDY7HY+Y4YIY6x7q7CpvdqtptUxPaQJCNOXVw7g22eNdrEhaElhfFdpBTYjH7rUbNubwVH5oJNjsfCbOHkuDiP2Z0VU7nRB1NNfMJIfDr55dvqLFepx6nnHuWMUzYJH+HJMA6Cc7AwSnwuudho7bReo4WqKf8A7bXyRt6Qzg1EI7NLiJGjsHJOfxFfbgPENLpTYhDVMGwmBa+31Bv9XL0974m293pL+eZtv9yn/wC0cVj0koIZgOsM4aXfyygAf1FP/Uldt/YlTf8A/akt+vNV3fiCuPwHiGq0qMQhpWH4hCCX27WAt/Upbhz2ZUVK7nSh1TNfMZJvFr55dr9zc912/wBo4rJpHQQwX6zThxb/ACxAh39QWh4WqKj/ALlXySN6wwA08J7OLTzHD1cm6PXFOK7vNNh0fvVRsbG0FP8AmnkGjd/hF3HyXPDSw4cyTEMQm51TIA18ltXXPhp6aPcNubBo1J1O61GP08H8Dg1M2eRnhyQgNggPUzyjwt13Grt9FzzwxUj212Kze8VjjamiY0kRuP8Ad0kW5Pm8673ICgzGchdjOL/ZljSKSD4jTNdsLD46h+g020A6lSHDGGSySuxKuZlnkblhi39zgJuI/LO6wLiOunRaYVgs1TM2uxNoDma0tMDmZSX/ABv6PmI3Ozdh5m1qWqyiIoCIiAiIgIiICIiAiIgIiICIiAoHHeGI6h4nje+Cpb8E8Vg//C8HSRn5XfS26nkQU1+I1UVoMVohURkgNqIGGRpNwAZYTd0Zv1bmHoriEsgCWjKIiAhREFMZiFVLeHCqIU8YcQ6onZkYDcgmKAWdIb9XZRtupXAuGI6d5nke+epd8c8ti8/lYBpGz8rfrfdTqyrsERFAREQEREBERAREQEREBERAREQEREBERAREQEREBERAREQEREBERAREQEREBERAREQEREBERAREQEREBERAREQEREBERAREQEREBERAREQEREBERAREQERaSSBoJdoACT6DUoN0XlTzte1r2G7XAOafMEXB17LU1kdyM7bhwaRcXDnDMGnuQQbd0HuixmWj52gtBcAXGzRfVxsTYd7An6IPRFjMvKCpa/NkN8ri12+jhuNfVB7IsZljMg2RYuo4Y7T+P7T4LX8L7uu7KOWMv2l3eHwX10QSSKNbjlOSwCT4rW8L/DdxYBJp9mS4Ftn21BHRbHGYbSFry/lPySCNj5Cx/wApEbSdOvl1QSCKKHEVPZhvJZ5AaeTPluX5ACclmnMLWNl6DGobPdmdZjshPLls52Ysyx+H7Q5gR4LoJFFwxYvA50bGytLpWudG3XM4N+I23FtjfrolFi0Ur3RszhzQHEPiljOUkgEcxouLg7eSDuREQEREBERAREQEREBQmOYVJNLE+PKMrXtJc42Ada9mZSCdPizNI77KbWEFUi4cmi5JhMf2bY8zC57WvcIJIZHXDTrd7Tsb5dbbrzg4WkYDdkEh5lPJdznAuMcTI3tPgNhdpcDrvaw3VvCBBU6bhiQOHMc1w5rXvJkeee0GQ+JmQBrvGOrr230AW0XDcgex1orMnMjWl7nOAcx7S7PywS4FwIBB2tm8rUFgIKlDw3O2xPKIbyg6LPJy6ksEgdLI7Icr3GRptld8AuTpbuw/B5oZpJQ5juYTZpc4CC5bflnL1AN7jdrdd7WAIgq7cBlEbGmOB5YTmzSSAVV2kc2TwHK8E3t4tzqNF4u4TkLSHyNe+zxnJfmdeARsv6SNz9t91bkQeEcBBa4vdcMylt/A46eLa99P3Khqejq800j2QF7rCM82TLyw6/LA5Q5ehvnu85ulgALAiCoRcMzhzCXsNsn45PscsrpCLZft7h1rvy2Iv1UmygqA6rLBEzm5eSQ9xyWbkzObkABt4rAnXS/VTiIIw4Z4qdjbCGEXy65nPAswnpYXcfWyipcBmc2QARxgvic2JsspY7JI57nZywGJzrj4Wn4dzfS0IgrlFhE8XugAicIi/mHO8OAeXWa37M58odu4guI1tdS2HUZY6WSQgvkdra9msbpGwX6AXPq5y7UCDKIiAiIgIiIP/9k=;clipPath=inset(19.53% 20.37% 22.96% 17.13%);" vertex="1" parent="1">
          <mxGeometry x="554.7" y="360" width="80.6" height="80" as="geometry" />
        </mxCell>
      </root>
    </mxGraphModel>
  </diagram>
</mxfile>
